<svg xmlns="http://www.w3.org/2000/svg" width="32" height="32">
  <path fill="#f2f4f7" d="M16 28.665c2.132-.337 3.761-1.91 5.799-2.622 2.612-.912 6.293.121 7.868-2.153 1.534-2.214-.582-5.217-.909-7.891-.284-2.325.05-4.706-.893-6.85-1.001-2.277-2.59-4.261-4.623-5.694C21.103 1.948 18.615.895 16 .789c-2.665-.109-5.289.715-7.591 2.062-2.295 1.343-4.211 3.265-5.494 5.593-1.27 2.303-2.037 4.94-1.753 7.555.272 2.506 1.919 4.552 3.297 6.663 1.312 2.01 2.448 4.291 4.578 5.398 2.103 1.094 4.622.974 6.964.604z"/>
  <path fill="#e44848" d="M6.741 14.765v5.556c0 .341.276.617.617.617H9.21a1.852 1.852 0 1 1 3.704 0H16v-6.173zM19.704 14.765h3.086v6.173h-3.086v-6.173z"/>
  <path fill="none" stroke="#000" stroke-linecap="round" stroke-linejoin="round" stroke-width=".64" d="M12.914 20.938a1.852 1.852 0 1 1-3.704 0 1.852 1.852 0 0 1 3.704 0zM13.531 20.938h11.728v-1.852"/>
  <path fill="none" stroke="#000" stroke-linecap="round" stroke-linejoin="round" stroke-width=".64" d="M8.593 20.938H7.358a.617.617 0 0 1-.617-.617v0-9.259c0-1.023.829-1.852 1.852-1.852v0h12.346c1.023 0 1.852.829 1.852 1.852v9.259"/>
  <path fill="none" stroke="#000" stroke-linecap="round" stroke-linejoin="round" stroke-width=".64" d="M19.704 19.086v-6.173a.617.617 0 0 0-.617-.617v0h-2.469a.617.617 0 0 0-.617.617v7.407M7.358 14.765h8.025M20.321 14.765h1.852M9.21 14.148v-1.852c0-.341.276-.617.617-.617v0h2.469c.341 0 .617.276.617.617v1.852"/>
</svg>
